<?xml version="1.0" encoding="UTF-8" standalone="no"?>
<!DOCTYPE svg PUBLIC "-//W3C//DTD SVG 1.1//EN" "http://www.w3.org/Graphics/SVG/1.1/DTD/svg11.dtd">
<svg width="100%" height="100%" viewBox="0 0 538 216" version="1.1" xmlns="http://www.w3.org/2000/svg" xmlns:xlink="http://www.w3.org/1999/xlink" xml:space="preserve" xmlns:serif="http://www.serif.com/" style="fill-rule:evenodd;clip-rule:evenodd;stroke-linejoin:round;stroke-miterlimit:2;">
    <g id="Capa-1" serif:id="Capa 1">
        <g transform="matrix(1,0,0,1,144.598,110.482)">
            <path d="M0,-5.401L0.049,-5.809C3.305,-7.029 11.333,-17.517 11.191,-30.377C10.987,-48.692 -8.499,-58.256 -22.997,-58.256L-67.412,-58.256L-67.412,-21.626L-51.69,-21.626L-51.69,-43.604L-21.268,-43.604C-12.107,-43.604 -4.682,-36.179 -4.682,-27.019C-4.682,-20.613 -8.32,-15.066 -13.636,-12.303L-13.636,3.242C-4.576,3.67 2.644,11.129 2.644,20.295C2.644,29.735 -5.009,37.389 -14.45,37.389L-51.69,37.389L-51.69,15.818L-67.412,15.818L-67.412,52.855L-14.552,52.855C3.149,52.855 17.499,38.505 17.499,20.804C17.499,7.036 6.663,-4.241 0,-5.401" style="fill:rgb(3,81,115);fill-rule:nonzero;"/>
        </g>
        <g transform="matrix(1,0,0,1,102.4,137.515)">
            <path d="M0,-59.467L0,-38.818L-34.072,-38.818L-34.072,-85.289L-53.176,-85.289L-53.176,25.822L-34.072,25.822L-34.072,-21.474L0,-21.474L-0.145,-10.069L17.976,-10.069L18.121,-59.467L0,-59.467Z" style="fill:rgb(0,151,191);fill-rule:nonzero;"/>
        </g>
        <g transform="matrix(0.514255,0,0,0.524105,21.423,14.5843)">
            <path d="M158,222.468L158,225.937L169.739,225.867C175.133,225.996 179.043,225.826 181.187,226.076C182.881,226.274 183.377,227.175 183.377,227.718C183.377,228.241 182.95,229.024 181.404,229.367C179.371,229.818 175.394,229.412 170.431,229.641C157.577,230.234 157,231.201 157,240.191L157,246L190,246L190,239.16L177.438,239.194L166.534,239.194L165.39,239.173L165.372,237.257C165.372,237.257 165.122,235.639 166.605,235.319C168.179,234.98 171.571,235.221 176.352,235C188.113,234.457 191,232.973 191,227.471C191,220.433 187.626,219 171.05,219L158,219L158,222.468" style="fill:rgb(10,155,192);"/>
        </g>
        <g transform="matrix(1,0,0,1,225.426,163.337)">
            <path d="M0,-63.466C1.387,-63.466 2.081,-62.773 2.081,-61.385L2.081,-51.674C2.081,-50.172 1.387,-49.594 0,-49.594L-30.75,-49.594C-40.692,-49.594 -43.351,-46.588 -43.351,-36.878L-43.351,-2.544C-43.351,-0.809 -44.16,0 -45.895,0L-57.223,0C-58.958,0 -59.882,-0.809 -59.882,-2.544L-59.882,-39.999C-59.882,-56.761 -53.177,-63.466 -32.369,-63.466L0,-63.466Z" style="fill:rgb(3,81,115);fill-rule:nonzero;"/>
        </g>
        <g transform="matrix(1,0,0,1,244.846,137.095)">
            <path d="M0,-10.982L46.819,-10.982C48.207,-10.982 48.784,-11.444 48.784,-12.947L48.784,-17.803C48.784,-22.542 47.05,-24.392 41.733,-24.392L12.717,-24.392C2.659,-24.392 0,-21.502 0,-14.104L0,-10.982ZM44.97,-37.224C60.808,-37.224 64.969,-32.253 64.969,-18.265L64.969,-7.283C64.969,-2.312 62.888,-0.693 58.379,-0.693L0,-0.693L0,2.081C0,9.364 2.659,12.37 12.717,12.37L60.922,12.37C62.311,12.37 63.004,13.063 63.004,14.451L63.004,24.161C63.004,25.548 62.311,26.242 60.922,26.242L11.098,26.242C-9.71,26.242 -16.415,19.652 -16.415,2.89L-16.415,-13.757C-16.415,-30.519 -9.71,-37.224 11.098,-37.224L44.97,-37.224Z" style="fill:rgb(3,81,115);fill-rule:nonzero;"/>
        </g>
        <g transform="matrix(1,0,0,1,378.712,116.518)">
            <path d="M0,30.172L0,19.999L-42.311,19.999C-47.05,19.999 -48.784,21.964 -48.784,25.664L-48.784,28.091C-48.784,32.253 -47.05,34.103 -42.311,34.103L-3.353,34.103C-0.925,34.103 0,33.062 0,30.172M-10.983,-16.647C9.826,-16.647 16.531,-9.942 16.531,6.82L16.531,37.57C16.531,45.085 14.681,46.819 7.976,46.819L-47.05,46.819C-60.691,46.819 -64.853,41.848 -64.853,30.403L-64.853,24.854C-64.853,15.144 -60.691,9.711 -47.05,9.711L0,9.711L0,7.514C0,0.115 -2.543,-2.775 -12.601,-2.775L-60.922,-2.775C-62.311,-2.775 -63.004,-3.352 -63.004,-4.855L-63.004,-14.566C-63.004,-15.953 -62.311,-16.647 -60.922,-16.647L-10.983,-16.647Z" style="fill:rgb(3,81,115);fill-rule:nonzero;"/>
        </g>
        <g transform="matrix(1,0,0,1,471.771,91.4384)">
            <path d="M0,45.31L0,22.305L-41.848,22.305C-51.79,22.305 -54.448,25.31 -54.448,35.021L-54.448,45.31C-54.448,55.02 -51.79,58.026 -41.848,58.026L-12.717,58.026C-2.658,58.026 0,55.02 0,45.31M0,8.433L0,-24.045C0,-25.779 0.81,-26.588 2.544,-26.588L13.873,-26.588C15.606,-26.588 16.415,-25.779 16.415,-24.045L16.415,48.546C16.415,65.309 9.711,71.898 -11.098,71.898L-43.467,71.898C-64.274,71.898 -70.979,65.309 -70.979,48.546L-70.979,31.899C-70.979,15.137 -64.274,8.433 -43.467,8.433L0,8.433Z" style="fill:rgb(3,81,115);fill-rule:nonzero;"/>
        </g>
    </g>
</svg>
