<svg xmlns="http://www.w3.org/2000/svg" viewBox="0 0 100 100">
    <style>
        .base {
        fill: #8BC34A;
        }

        .accent {
        fill: white;
        }

        @keyframes popIn {
        0% {
        transform: scale(0);
        opacity: 0;
        }
        60% {
        transform: scale(1.2);
        }
        100% {
        transform: scale(1);
        opacity: 1;
        }
        }

        @keyframes rotate {
        from {
        transform: rotate(0deg);
        }
        to {
        transform: rotate(360deg);
        }
        }

        @keyframes pulse {
        0% {
        opacity: 0.7;
        }
        50% {
        opacity: 1;
        }
        100% {
        opacity: 0.7;
        }
        }

        .circle-base {
        animation: popIn 0.5s ease-out;
        }

        .gear {
        transform-origin: center;
        animation: rotate 8s linear infinite;
        }

        .dots {
        animation: pulse 2s ease-in-out infinite;
        }
    </style>

    <!-- Círculo base -->
    <circle class="base circle-base" cx="50" cy="50" r="35"/>

    <!-- Engranaje exterior -->
    <g class="gear">
        <path class="accent" d="
      M50 15 L55 15 L57 25 L65 20 L69 24 L64 32 L72 35 L72 40 L64 43
      L69 51 L65 55 L57 50 L55 58 L50 58 L48 50 L40 55 L36 51 L41 43
      L33 40 L33 35 L41 32 L36 24 L40 20 L48 25 L50 15Z"/>
    </g>

    <!-- Círculo central -->
    <circle class="base" cx="50" cy="50" r="15"/>

    <!-- Puntos de conexión -->
    <g class="dots">
        <circle class="accent" cx="50" cy="35" r="4"/>
        <circle class="accent" cx="65" cy="50" r="4"/>
        <circle class="accent" cx="50" cy="65" r="4"/>
        <circle class="accent" cx="35" cy="50" r="4"/>
    </g>
</svg>
