<svg xmlns="http://www.w3.org/2000/svg" viewBox="0 0 100 100">
    <style>
        .base {
        fill: #8BC34A;
        }

        .accent {
        fill: white;
        }

        @keyframes popIn {
        0% {
        transform: scale(0);
        opacity: 0;
        }
        60% {
        transform: scale(1.2);
        }
        100% {
        transform: scale(1);
        opacity: 1;
        }
        }

        @keyframes float {
        0% {
        transform: translateY(0);
        }
        50% {
        transform: translateY(-3px);
        }
        100% {
        transform: translateY(0);
        }
        }

        @keyframes sparkle {
        0% {
        transform: scale(1);
        opacity: 0.7;
        }
        50% {
        transform: scale(1.2);
        opacity: 1;
        }
        100% {
        transform: scale(1);
        opacity: 0.7;
        }
        }

        .circle-base {
        animation: popIn 0.5s ease-out;
        }

        .gift-box {
        animation: float 2s ease-in-out infinite;
        }

        .star {
        transform-origin: center;
        animation: sparkle 1.5s ease-in-out infinite;
        }

        .star2 {
        animation-delay: 0.5s;
        }

        .star3 {
        animation-delay: 1s;
        }
    </style>

    <!-- Círculo base -->
    <circle class="base circle-base" cx="50" cy="50" r="35"/>

    <!-- Grupo del regalo -->
    <g class="gift-box">
        <!-- Caja base -->
        <rect class="accent" x="35" y="45" width="30" height="20" rx="2"/>
        <!-- Tapa de la caja -->
        <rect class="accent" x="32" y="40" width="36" height="8" rx="2"/>
        <!-- Cinta vertical -->
        <rect class="base" x="48" y="40" width="4" height="25"/>
        <!-- Cinta horizontal -->
        <rect class="base" x="35" y="48" width="30" height="4"/>
    </g>

    <!-- Estrellas -->
    <g class="stars">
        <path class="accent star" d="M70 40 L72 45 L77 45 L73 48 L75 53 L70 50 L65 53 L67 48 L63 45 L68 45 Z"/>
        <path class="accent star star2" d="M35 35 L37 40 L42 40 L38 43 L40 48 L35 45 L30 48 L32 43 L28 40 L33 40 Z"/>
        <path class="accent star star3" d="M60 60 L62 65 L67 65 L63 68 L65 73 L60 70 L55 73 L57 68 L53 65 L58 65 Z"/>
    </g>
</svg>
